<?xml version="1.0" encoding="utf-8"?>
<!-- Generator: Adobe Illustrator 16.0.4, SVG Export Plug-In . SVG Version: 6.00 Build 0)  -->
<!DOCTYPE svg PUBLIC "-//W3C//DTD SVG 1.1//EN" "http://www.w3.org/Graphics/SVG/1.1/DTD/svg11.dtd">
<svg version="1.1" id="Layer_1" xmlns="http://www.w3.org/2000/svg" xmlns:xlink="http://www.w3.org/1999/xlink" x="0px" y="0px"
	 width="1759.155px" height="1759.161px" viewBox="0 0 1759.155 1759.161" enable-background="new 0 0 1759.155 1759.161"
	 xml:space="preserve">
<path fill="#FFFFFF" d="M1689.997,537.182c-44.304-104.752-107.712-198.809-188.46-279.559
	c-80.752-80.748-174.812-144.159-279.567-188.463C1113.486,23.267,998.287,0,879.575,0C760.87,0,645.672,23.267,537.179,69.16
	c-104.752,44.305-198.803,107.712-279.556,188.463c-80.754,80.75-144.165,174.807-188.469,279.559
	C23.271,645.672,0,760.873,0,879.579s23.271,233.91,69.154,342.4c44.304,104.749,107.714,198.804,188.469,279.557
	c80.753,80.756,174.804,144.162,279.556,188.465c108.493,45.893,223.691,69.16,342.396,69.16
	c118.712,0,233.912-23.268,342.395-69.16c104.756-44.303,198.812-107.709,279.567-188.465
	c80.748-80.753,144.156-174.808,188.46-279.557c45.894-108.49,69.158-223.694,69.158-342.4S1735.891,645.672,1689.997,537.182z"/>
<g>
	<path d="M879.575,1691.603c-109.613,0-215.958-21.471-316.078-63.82c-96.693-40.9-183.541-99.445-258.108-174.016
		c-74.564-74.564-133.114-161.406-174.017-258.105c-42.347-100.119-63.821-206.468-63.821-316.082s21.474-215.962,63.821-316.083
		c40.903-96.692,99.452-183.534,174.017-258.105c74.567-74.567,161.415-133.116,258.108-174.02
		c100.12-42.344,206.465-63.818,316.078-63.818c109.613,0,215.964,21.475,316.086,63.818
		c96.692,40.903,183.53,99.452,258.099,174.02c74.575,74.571,133.123,161.413,174.024,258.105
		c42.347,100.12,63.817,206.468,63.817,316.083s-21.471,215.963-63.817,316.082c-40.901,96.699-99.449,183.541-174.024,258.105
		c-74.568,74.57-161.406,133.115-258.099,174.016C1095.539,1670.132,989.188,1691.603,879.575,1691.603z M879.575,100.591
		c-105.168,0-207.181,20.591-303.212,61.208c-92.757,39.233-176.067,95.405-247.619,166.951
		C257.205,400.299,201.039,483.608,161.8,576.369c-40.618,96.023-61.211,198.039-61.211,303.21
		c0,105.177,20.593,207.187,61.211,303.216c39.239,92.76,95.405,176.066,166.943,247.613
		c71.552,71.55,154.862,127.718,247.619,166.953c96.031,40.615,198.044,61.206,303.212,61.206
		c105.171,0,207.19-20.591,303.217-61.206c92.765-39.235,176.07-95.403,247.613-166.953
		c71.548-71.547,127.717-154.854,166.949-247.613c40.621-96.029,61.213-198.045,61.213-303.216
		c0-105.171-20.592-207.187-61.213-303.21c-39.232-92.761-95.401-176.07-166.949-247.619
		c-71.543-71.545-154.858-127.718-247.613-166.951C1086.765,121.182,984.746,100.591,879.575,100.591z"/>
</g>
<path fill-rule="evenodd" clip-rule="evenodd" fill="#00863F" d="M880.395,298.347c330.366,0.167,594.381,264.88,592.847,596.921
	c-1.573,339.701-284.979,595.355-606.243,590.025c-318.787-5.301-581.438-271.672-581.09-599.393
	C286.254,562.062,553.25,298.169,880.395,298.347z"/>
<path fill-rule="evenodd" clip-rule="evenodd" fill="#67AC47" d="M879.562,1382.332c-25.075,2.203-49.649-2.889-74.439-4.999
	c-16.442-1.4-20.554-8.841-17.492-24.799c26.591-138.795,52.591-277.711,78.797-416.589c1.444-7.661,0.995-17.065,12.054-17.812
	c12.928-0.893,12.931,9.342,14.572,18.041c26.177,138.888,52.206,277.804,78.803,416.615c3.095,16.171-1.638,23.175-17.856,24.589
	C929.208,1379.521,904.64,1384.479,879.562,1382.332z"/>
<path fill-rule="evenodd" clip-rule="evenodd" fill="#67AC47" d="M935.783,919.946c20.766-9.324,33.14,4.636,45.999,16.721
	c79.738,74.934,159.392,149.929,239.074,224.908c1.943,1.835,3.769,3.781,5.729,5.609c36.538,33.934,36.507,33.894,1.994,68.974
	c-20.018,20.344-41.916,38.431-64.922,55.312c-9.443,6.938-16.582,8.925-23.47-3.356
	c-67.909-120.971-136.061-241.799-204.042-362.727C935.368,924.024,935.879,921.945,935.783,919.946z"/>
<path fill-rule="evenodd" clip-rule="evenodd" fill="#67AC47" d="M826.287,920.612c-19.776,35.214-38.761,69.22-57.924,103.132
	c-48.109,85.188-96.885,169.999-144,255.729c-10.872,19.773-19.576,20.263-35.809,7.161c-27.75-22.41-54.707-45.438-78.136-72.471
	c-8.754-10.107-11.205-16.888,0.806-28.012c91.356-84.629,181.911-170.133,272.654-255.428
	C794.757,920.498,806.304,913.225,826.287,920.612z"/>
<path fill-rule="evenodd" clip-rule="evenodd" fill="#67AC47" d="M730.859,922.812c-97.195,45.204-194.449,90.263-291.491,135.792
	c-12.978,6.093-18.294,2.976-23.441-10.154c-23.267-59.263-22.73-61.194,38.913-75.98c69.856-16.752,139.879-32.767,209.625-49.958
	C686.433,917.092,708.158,916.473,730.859,922.812z"/>
<path fill-rule="evenodd" clip-rule="evenodd" fill="#67AC47" d="M1023.998,920.033c36.168-6.039,62.669,0.611,89.492,7.205
	c74.05,18.215,148.214,36.014,222.601,52.809c17.351,3.914,23.645,8.869,18.968,28.248c-14.5,60.168-13.58,60.227-69.441,34.16
	c-74.749-34.885-149.632-69.504-224.423-104.297C1051.014,933.416,1041.002,928.334,1023.998,920.033z"/>
<g>
	<path d="M256.664,796.168l-3.423,28.043l-107.885-13.16l3.413-28.043L256.664,796.168z"/>
	<path d="M151.704,753.186l7.177-27.325l77.412-33.184l0.076-0.272l-64.279-16.873l7.176-27.331l105.125,27.6l-7.173,27.328
		l-77.555,33.141l-0.07,0.279L264,753.458l-7.173,27.321L151.704,753.186z"/>
	<path d="M191.606,615.062l12.432-25.366l82.443-17.229l0.128-0.26l-59.675-29.242l12.438-25.369l97.591,47.823l-12.433,25.375
		l-82.571,17.161l-0.125,0.257l59.804,29.309l-12.435,25.369L191.606,615.062z"/>
	<path d="M288.232,442.064c4.733-6.179,10.389-11.32,16.977-15.419c6.58-4.1,13.533-6.857,20.852-8.277
		c7.307-1.416,14.71-1.36,22.182,0.183c7.469,1.54,14.447,4.794,20.935,9.758c7.026,5.367,12.53,11.463,16.521,18.264
		c3.988,6.805,6.479,13.941,7.476,21.416c0.996,7.479,0.428,15.028-1.717,22.645c-2.133,7.62-5.863,14.905-11.174,21.846
		c-5.315,6.947-11.369,12.45-18.164,16.507c-6.795,4.059-13.934,6.587-21.404,7.579c-7.482,0.995-15.026,0.458-22.634-1.611
		c-7.604-2.07-14.925-5.795-21.948-11.165c-6.484-4.971-11.45-10.852-14.892-17.663c-3.444-6.802-5.435-13.922-5.988-21.359
		c-0.537-7.435,0.306-14.862,2.535-22.286C280.027,455.051,283.509,448.243,288.232,442.064z M309.987,458.704
		c-2.567,3.359-4.348,6.991-5.335,10.893c-0.992,3.898-1.282,7.758-0.873,11.579c0.402,3.821,1.484,7.428,3.236,10.827
		c1.757,3.402,4.125,6.241,7.094,8.516c3.748,2.863,7.674,4.843,11.8,5.934c4.123,1.103,8.167,1.419,12.154,0.958
		c3.988-0.459,7.743-1.671,11.293-3.61c3.545-1.946,6.608-4.598,9.167-7.958c2.571-3.359,4.335-7,5.284-10.938
		c0.948-3.926,1.123-7.874,0.523-11.84c-0.591-3.966-1.954-7.793-4.091-11.483c-2.137-3.691-5.071-6.969-8.813-9.83
		c-2.978-2.281-6.34-3.812-10.077-4.623c-3.742-0.806-7.504-0.901-11.3-0.298c-3.793,0.611-7.439,1.903-10.951,3.874
		C315.594,452.68,312.559,455.345,309.987,458.704z"/>
	<path d="M425.944,394.796l-24.804-66.631l22.75-20.62l38.612,111.694l-16.231,14.719l-106.85-49.834l22.745-20.619L425.944,394.796
		z"/>
	<path d="M502.48,363.388l4.223,19.869l-24.951,16.621l-25.456-113.63l25.676-17.099l94.32,67.761l-25.078,16.7l-16.345-11.802
		L502.48,363.388z M487.755,305.655l-0.242,0.152l9.458,35.265l19.553-13.021L487.755,305.655z"/>
	<path d="M613.373,320.884l-25.353,12.471l-37.409-76.059l-20.956,10.31l-10.56-21.475l67.261-33.082l10.558,21.471l-20.958,10.308
		L613.373,320.884z"/>
	<path d="M668.427,298.386l-26.406,10.035l-38.61-101.598l26.405-10.035L668.427,298.386z"/>
	<path d="M716.549,239.564l9.659-70.44l29.791-7.408l-18.797,116.67l-21.263,5.295l-70.579-94.439l29.789-7.413L716.549,239.564z"/>
	<path d="M805.776,181.319l1.804,18.075l31.7-3.161l2.372,23.811l-31.694,3.158l1.865,18.646l33.415-3.334l2.376,23.811
		l-61.535,6.14L775.285,160.32l61.533-6.145l2.377,23.811L805.776,181.319z"/>
	<path d="M938.93,245.873l-9.694,17.855l-29.765-3.573l54.451-102.929l30.626,3.674l27.697,112.79l-29.908-3.592l-4.765-19.59
		L938.93,245.873z M965.234,192.409l-0.286-0.034l-15.716,32.958l23.324,2.8L965.234,192.409z"/>
	<path d="M1137.982,248.524c-1.24,3.743-2.514,7.347-3.817,10.816c-1.309,3.469-2.847,6.791-4.614,9.97
		c-1.776,3.18-3.844,6.191-6.217,9.035c-2.375,2.843-5.201,5.523-8.473,8.043c-7.328,5.604-15.162,8.896-23.498,9.878
		c-8.335,0.975-16.867,0.138-25.598-2.52c-8.184-2.488-15.266-6.104-21.26-10.837c-5.994-4.737-10.693-10.257-14.1-16.567
		c-3.402-6.309-5.438-13.228-6.111-20.768c-0.669-7.538,0.242-15.395,2.733-23.577c2.572-8.458,6.263-15.725,11.075-21.795
		c4.808-6.07,10.434-10.784,16.882-14.146c6.448-3.361,13.548-5.321,21.301-5.875c7.753-0.555,15.81,0.444,24.175,2.991
		c10.759,3.271,19.403,8.535,25.93,15.794c6.535,7.259,10.562,16.452,12.108,27.566l-28.92,2.948
		c-0.329-5.521-1.938-10.379-4.841-14.57c-2.888-4.196-7.09-7.136-12.605-8.813c-4.412-1.343-8.617-1.566-12.605-0.669
		c-3.984,0.893-7.58,2.566-10.786,5.003c-3.208,2.44-5.975,5.443-8.31,8.997c-2.35,3.558-4.111,7.313-5.314,11.266
		c-1.227,4.045-1.849,8.205-1.839,12.471c0.003,4.276,0.702,8.276,2.068,12.01c1.38,3.729,3.509,7.068,6.381,10
		s6.511,5.076,10.929,6.413c5.881,1.79,11.302,1.812,16.257,0.048c4.955-1.752,8.63-5.586,11.032-11.482l-22.065-6.715l6.463-21.238
		L1137.982,248.524z"/>
	<path d="M1263.656,292.517c-1.112-3.221-2.727-6.211-4.84-8.963c-2.107-2.751-4.657-5.004-7.641-6.761
		c-1.16-0.686-2.436-1.215-3.829-1.591c-1.399-0.375-2.81-0.536-4.23-0.485c-1.433,0.052-2.748,0.358-3.979,0.916
		c-1.219,0.565-2.224,1.506-3.001,2.833c-0.832,1.406-1.156,2.809-0.973,4.195c0.182,1.391,0.605,2.76,1.268,4.098
		c0.659,1.334,1.478,2.602,2.453,3.787c0.974,1.188,1.9,2.265,2.781,3.23l5.111,5.525c2.647,2.891,4.973,5.854,6.982,8.877
		c2.006,3.029,3.464,6.144,4.357,9.351c0.897,3.203,1.127,6.547,0.695,10.029c-0.437,3.48-1.779,7.127-4.021,10.936
		c-2.73,4.633-6.111,8.807-10.136,12.511c-4.024,3.708-8.827,6.038-14.404,6.988c-5.582,0.953-11.096,0.739-16.532-0.629
		c-5.449-1.365-10.521-3.441-15.246-6.224c-5.954-3.512-11.176-7.849-15.668-13.004c-4.493-5.158-8.138-10.847-10.936-17.071
		l21.992-13.473c1.496,4.456,3.474,8.686,5.912,12.689c2.436,4.003,5.77,7.247,9.99,9.738c1.404,0.824,2.919,1.469,4.549,1.928
		c1.622,0.452,3.21,0.641,4.773,0.556c1.561-0.085,3.042-0.522,4.452-1.308c1.413-0.786,2.605-2.003,3.586-3.661
		c1.022-1.739,1.355-3.491,1.002-5.262c-0.35-1.769-1.044-3.519-2.09-5.249c-1.044-1.726-2.271-3.347-3.669-4.841
		c-1.41-1.497-2.648-2.844-3.726-4.037c-3.18-3.322-5.959-6.498-8.36-9.532c-2.396-3.025-4.146-6.152-5.268-9.375
		c-1.104-3.221-1.414-6.636-0.898-10.239c0.501-3.602,2.104-7.685,4.787-12.24c2.783-4.718,6.123-8.543,10.033-11.484
		c3.911-2.937,8.094-4.933,12.562-5.984c4.464-1.047,9.104-1.157,13.914-0.328c4.81,0.827,9.575,2.634,14.292,5.417
		c2.32,1.365,4.672,3.002,7.062,4.912c2.386,1.914,4.647,3.941,6.78,6.092c2.135,2.155,4.145,4.422,6.024,6.816
		c1.88,2.388,3.513,4.774,4.898,7.155L1263.656,292.517z"/>
	<path d="M1303.396,283.48l26.33,21.304l-2.781,35.756l34.389-10.187l26.33,21.31l-66.697,18.718l-32.812,40.562l-21.966-17.771
		l32.818-40.562L1303.396,283.48z"/>
	<path d="M1420.321,428.547c-0.129-3.405-0.801-6.736-2.023-9.983c-1.22-3.25-3.003-6.148-5.344-8.699
		c-0.911-0.988-1.978-1.865-3.202-2.63c-1.236-0.766-2.529-1.333-3.909-1.698c-1.384-0.365-2.739-0.456-4.07-0.272
		c-1.339,0.177-2.571,0.793-3.696,1.828c-1.209,1.112-1.92,2.355-2.154,3.74c-0.227,1.382-0.221,2.811,0.027,4.285
		c0.233,1.472,0.658,2.919,1.245,4.339c0.585,1.419,1.151,2.717,1.719,3.895l3.288,6.771c1.691,3.539,3.045,7.05,4.089,10.526
		c1.042,3.477,1.524,6.882,1.456,10.216c-0.077,3.328-0.826,6.594-2.248,9.795c-1.429,3.208-3.774,6.303-7.029,9.296
		c-3.962,3.638-8.406,6.65-13.338,9.024c-4.929,2.373-10.199,3.207-15.813,2.494c-5.614-0.716-10.827-2.522-15.637-5.41
		c-4.806-2.888-9.064-6.35-12.771-10.384c-4.678-5.095-8.416-10.762-11.209-17c-2.798-6.244-4.636-12.742-5.5-19.516l24.962-6.492
		c0.141,4.698,0.794,9.315,1.959,13.854c1.17,4.54,3.412,8.612,6.725,12.222c1.106,1.202,2.373,2.259,3.793,3.173
		c1.423,0.908,2.898,1.546,4.408,1.918c1.52,0.372,3.062,0.384,4.637,0.043c1.584-0.34,3.083-1.159,4.495-2.46
		c1.485-1.367,2.325-2.944,2.502-4.741c0.171-1.797,0.018-3.669-0.483-5.63c-0.49-1.962-1.19-3.862-2.102-5.702
		c-0.91-1.841-1.706-3.489-2.389-4.946c-2.078-4.099-3.814-7.948-5.229-11.546c-1.411-3.595-2.18-7.099-2.305-10.501
		c-0.132-3.408,0.571-6.762,2.109-10.061c1.532-3.303,4.24-6.743,8.136-10.319c4.035-3.703,8.352-6.393,12.946-8.072
		c4.592-1.674,9.176-2.365,13.756-2.07c4.581,0.301,9.04,1.54,13.413,3.737c4.355,2.181,8.396,5.296,12.098,9.327
		c1.818,1.987,3.593,4.236,5.321,6.762c1.734,2.519,3.304,5.119,4.724,7.8c1.415,2.674,2.677,5.432,3.784,8.268
		c1.103,2.835,1.973,5.593,2.607,8.28L1420.321,428.547z"/>
	<path d="M1402.383,538.421l-16.327-23.054l69.189-48.965l-13.492-19.064l19.534-13.82l43.296,61.181l-19.53,13.827l-13.488-19.066
		L1402.383,538.421z"/>
	<path d="M1507.35,548.416l-15.979,8.642l15.167,28.019l-21.048,11.385l-15.156-28.019l-16.487,8.912l15.986,29.543l-21.049,11.385
		l-29.426-54.386l95.596-51.714l29.422,54.386l-21.043,11.388L1507.35,548.416z"/>
	<path d="M1563.276,606.067l8.911,26.358l-47.972,39.493l62.511,3.521l9.001,26.63l-97.704,50.373l-9.047-26.773l56.729-27.539
		l-0.093-0.272l-67.624-4.685l-3.598-10.653l51.28-43.652l-0.089-0.272l-62.18,11.428l-8.998-26.631L1563.276,606.067z"/>
	<path d="M1585.723,807.67c1.807-2.894,3.099-6.033,3.902-9.407c0.8-3.378,0.95-6.78,0.436-10.195
		c-0.205-1.333-0.592-2.658-1.183-3.976c-0.59-1.323-1.349-2.52-2.288-3.591c-0.945-1.076-2.016-1.91-3.223-2.504
		c-1.208-0.602-2.571-0.781-4.095-0.555c-1.613,0.248-2.905,0.879-3.859,1.899c-0.969,1.017-1.763,2.203-2.384,3.561
		c-0.626,1.36-1.08,2.792-1.391,4.291c-0.311,1.506-0.56,2.904-0.76,4.202l-1.057,7.443c-0.588,3.876-1.422,7.549-2.497,11.016
		c-1.085,3.467-2.585,6.56-4.508,9.281c-1.922,2.717-4.374,5.007-7.347,6.866c-2.985,1.85-6.657,3.111-11.027,3.771
		c-5.322,0.802-10.691,0.806-16.104,0.019c-5.414-0.791-10.254-3.046-14.501-6.78c-4.262-3.728-7.568-8.14-9.938-13.229
		c-2.365-5.085-3.957-10.334-4.777-15.748c-1.029-6.845-0.959-13.631,0.213-20.368c1.176-6.737,3.291-13.161,6.364-19.256
		l24.319,8.584c-2.513,3.975-4.555,8.168-6.12,12.584c-1.571,4.413-1.992,9.048-1.257,13.895c0.238,1.611,0.69,3.194,1.362,4.747
		c0.671,1.55,1.526,2.903,2.583,4.057c1.048,1.155,2.318,2.036,3.818,2.634c1.494,0.598,3.199,0.756,5.102,0.474
		c1.996-0.307,3.566-1.149,4.725-2.534c1.141-1.392,2.059-3.037,2.749-4.937c0.684-1.903,1.171-3.87,1.448-5.9
		c0.273-2.036,0.529-3.848,0.777-5.441c0.58-4.558,1.291-8.72,2.135-12.491c0.836-3.771,2.156-7.102,3.964-10.002
		c1.79-2.895,4.248-5.277,7.365-7.158c3.125-1.881,7.3-3.207,12.521-3.998c5.417-0.812,10.499-0.632,15.238,0.549
		c4.745,1.18,8.935,3.173,12.572,5.983c3.626,2.801,6.636,6.334,9.024,10.591c2.39,4.252,3.994,9.089,4.809,14.505
		c0.4,2.662,0.613,5.519,0.636,8.581c0.021,3.058-0.13,6.092-0.45,9.104c-0.327,3.016-0.83,6.002-1.494,8.974
		c-0.672,2.965-1.493,5.736-2.466,8.311L1585.723,807.67z"/>
</g>
<g>
	<path d="M326.237,1359.157l-13.532-16.303l48.892-40.616l-11.194-13.473l13.81-11.469l35.925,43.243l-13.807,11.469l-11.192-13.473
		L326.237,1359.157z"/>
	<path d="M406.992,1353.036l-9.674,9.597l16.826,16.956l-12.741,12.641l-16.828-16.964l-9.976,9.901l17.74,17.882l-12.746,12.638
		l-32.657-32.931l57.872-57.401l32.661,32.928l-12.739,12.643L406.992,1353.036z"/>
	<path d="M446.634,1472.591l-20.369-16.764l4.479-36.922l-0.165-0.133l-19.923,24.208l-16.366-13.468l51.805-62.936l24.458,20.127
		c3.116,2.565,5.696,5.32,7.761,8.273c2.049,2.95,3.392,6.018,4.036,9.207c0.647,3.188,0.508,6.469-0.385,9.832
		c-0.906,3.367-2.733,6.714-5.478,10.052c-1.793,2.176-3.79,4.007-5.998,5.504c-2.211,1.496-4.554,2.551-7.029,3.176
		c-2.473,0.626-5.021,0.768-7.639,0.431c-2.614-0.336-5.2-1.215-7.74-2.669L446.634,1472.591z M439.232,1408.253l1.589,1.307
		c1.336,1.1,2.739,2.116,4.211,3.047c1.475,0.933,2.984,1.57,4.53,1.901c1.542,0.339,3.08,0.279,4.626-0.179
		c1.539-0.458,3.023-1.546,4.441-3.272c1.422-1.724,2.205-3.387,2.358-4.992c0.152-1.599-0.086-3.126-0.712-4.576
		c-0.623-1.448-1.543-2.806-2.737-4.075c-1.195-1.264-2.466-2.445-3.802-3.545l-1.585-1.302L439.232,1408.253z"/>
	<path d="M514.692,1517.259l-22.107-14.393l0.341-37.185l-0.186-0.114l-17.102,26.271l-17.757-11.559l44.47-68.312l26.546,17.276
		c3.381,2.203,6.255,4.657,8.626,7.356c2.369,2.704,4.045,5.605,5.042,8.701c0.993,3.098,1.231,6.368,0.705,9.816
		c-0.521,3.442-1.963,6.977-4.316,10.598c-1.531,2.355-3.314,4.407-5.346,6.132c-2.029,1.729-4.242,3.05-6.629,3.942
		c-2.391,0.896-4.904,1.32-7.544,1.28c-2.637-0.038-5.307-0.633-7.995-1.788L514.692,1517.259z M500.178,1454.147l1.718,1.122
		c1.452,0.938,2.959,1.795,4.528,2.56c1.565,0.76,3.13,1.22,4.707,1.388c1.574,0.164,3.096-0.071,4.58-0.697
		c1.484-0.625,2.831-1.874,4.054-3.748c1.214-1.869,1.81-3.614,1.781-5.219c-0.02-1.608-0.427-3.096-1.217-4.473
		c-0.781-1.369-1.838-2.615-3.173-3.743c-1.334-1.124-2.721-2.162-4.174-3.102l-1.72-1.119L500.178,1454.147z"/>
	<path d="M574.168,1476.282l-6.25,12.112l21.234,10.949l-8.23,15.944l-21.228-10.951l-6.445,12.494l22.385,11.543l-8.228,15.949
		l-41.223-21.266l37.374-72.44l41.226,21.266l-8.238,15.951L574.168,1476.282z"/>
	<path d="M688.732,1537.162l9.604-29.948l20.177,6.464l-24.895,77.616l-20.171-6.467l10.196-31.809l-29.13-9.347l-10.199,31.81
		l-20.183-6.465l24.895-77.619l20.177,6.47l-9.609,29.956L688.732,1537.162z"/>
	<path d="M738.881,1586.64l-8.089,12.906l-22.109-4.059l45.568-74.507l22.751,4.18l15.465,85.721l-22.224-4.081l-2.648-14.887
		L738.881,1586.64z M761.072,1547.848l-0.208-0.041l-13.31,23.94l17.34,3.183L761.072,1547.848z"/>
	<path d="M883.003,1534.749l-2.519,45.768c-0.14,2.591-0.357,5.178-0.648,7.758c-0.285,2.592-0.759,5.092-1.438,7.5
		c-0.669,2.421-1.648,4.732-2.925,6.933c-1.28,2.206-2.976,4.22-5.098,6.058c-1.815,1.558-3.824,2.854-6.002,3.889
		c-2.19,1.038-4.471,1.85-6.854,2.438c-2.381,0.592-4.815,0.98-7.316,1.169c-2.497,0.188-4.942,0.213-7.313,0.086
		c-2.373-0.137-4.799-0.43-7.259-0.889c-2.461-0.459-4.847-1.119-7.143-1.963c-2.306-0.848-4.48-1.91-6.544-3.178
		c-2.058-1.264-3.905-2.774-5.537-4.527c-1.912-2.051-3.377-4.242-4.401-6.572c-1.031-2.328-1.742-4.734-2.157-7.214
		c-0.398-2.477-0.604-5.011-0.604-7.61c-0.002-2.598,0.068-5.194,0.208-7.79l2.525-45.763l21.149,1.162l-2.352,42.855
		c-0.146,2.665-0.183,5.314-0.112,7.954c0.069,2.638,0.518,5.045,1.336,7.218c0.817,2.174,2.164,3.959,4.032,5.364
		c1.874,1.403,4.5,2.2,7.883,2.386c3.384,0.186,6.088-0.317,8.097-1.507c2.012-1.187,3.543-2.819,4.6-4.89
		c1.05-2.07,1.758-4.412,2.114-7.031c0.36-2.615,0.616-5.252,0.764-7.914l2.361-42.854L883.003,1534.749z"/>
	<path d="M931.969,1613.726l-21.161,1.118l-3.34-63.482l-17.489,0.92l-0.942-17.916l56.141-2.956l0.941,17.922l-17.492,0.914
		L931.969,1613.726z"/>
	<path d="M975.285,1545.299l1.922,13.479l23.656-3.383l2.544,17.766l-23.655,3.383l1.994,13.914l24.933-3.57l2.546,17.769
		l-45.92,6.567l-11.535-80.692l45.908-6.568l2.537,17.767L975.285,1545.299z"/>
	<path d="M1050.072,1574.769l-11.709,39.328l-12.354,2.723l6.011-38.076L1050.072,1574.769z"/>
	<path d="M1126.604,1573.122l-20.036,6.874l-26.455-77.099l20.049-6.873L1126.604,1573.122z"/>
	<path d="M1112.528,1492.718l19.236-8.885l56.133,28.976l0.197-0.089l-20.897-45.251l19.234-8.884l34.181,74.007l-19.238,8.881
		l-56.176-29.071l-0.204,0.093l20.947,45.343l-19.234,8.881L1112.528,1492.718z"/>
	<path d="M1285.245,1391.488l27.182,36.905c1.539,2.095,3.017,4.228,4.438,6.406c1.422,2.168,2.646,4.402,3.659,6.692
		c1.012,2.297,1.732,4.697,2.147,7.211c0.425,2.514,0.394,5.153-0.076,7.915c-0.407,2.36-1.129,4.636-2.154,6.825
		c-1.037,2.188-2.274,4.268-3.736,6.234c-1.458,1.969-3.091,3.822-4.9,5.555c-1.807,1.74-3.675,3.312-5.587,4.722
		c-1.915,1.409-3.974,2.721-6.169,3.932c-2.192,1.214-4.447,2.229-6.761,3.037c-2.314,0.807-4.668,1.379-7.067,1.711
		c-2.391,0.334-4.781,0.341-7.151,0.03c-2.779-0.368-5.309-1.128-7.582-2.273c-2.274-1.141-4.358-2.541-6.24-4.193
		c-1.894-1.652-3.667-3.479-5.315-5.488c-1.658-2.002-3.253-4.046-4.786-6.139l-27.184-36.909l17.058-12.564l25.454,34.563
		c1.58,2.144,3.239,4.215,4.971,6.203c1.732,1.996,3.609,3.566,5.628,4.725c2.01,1.154,4.184,1.678,6.523,1.572
		c2.336-0.111,4.865-1.171,7.595-3.18c2.728-2.008,4.491-4.111,5.291-6.312c0.796-2.194,0.946-4.432,0.434-6.696
		c-0.504-2.269-1.45-4.524-2.831-6.773c-1.392-2.25-2.873-4.438-4.447-6.592l-25.456-34.56L1285.245,1391.488z"/>
	<path d="M1341.434,1368.486c-2.559,0.102-5.051,0.619-7.48,1.543c-2.435,0.927-4.603,2.271-6.508,4.029
		c-0.741,0.685-1.396,1.486-1.963,2.41c-0.575,0.921-0.996,1.898-1.265,2.932c-0.275,1.038-0.344,2.057-0.195,3.052
		c0.137,1.004,0.599,1.928,1.382,2.773c0.834,0.898,1.77,1.436,2.808,1.602c1.032,0.168,2.113,0.162,3.206-0.028
		c1.104-0.185,2.186-0.498,3.258-0.944c1.061-0.442,2.034-0.873,2.919-1.296l5.066-2.483c2.655-1.274,5.277-2.306,7.89-3.094
		c2.604-0.79,5.156-1.165,7.655-1.118c2.493,0.046,4.947,0.601,7.356,1.667c2.409,1.063,4.734,2.814,6.984,5.246
		c2.739,2.959,5.004,6.293,6.798,9.984c1.8,3.693,2.433,7.642,1.909,11.853c-0.523,4.214-1.866,8.129-4.014,11.741
		c-2.161,3.609-4.744,6.813-7.766,9.606c-3.806,3.52-8.05,6.34-12.724,8.446c-4.664,2.114-9.537,3.505-14.619,4.175l-4.931-18.714
		c3.525-0.108,6.988-0.616,10.389-1.503c3.398-0.883,6.451-2.574,9.151-5.072c0.894-0.828,1.685-1.782,2.362-2.854
		c0.685-1.066,1.159-2.173,1.434-3.305c0.277-1.143,0.279-2.298,0.017-3.485c-0.253-1.178-0.873-2.303-1.854-3.359
		c-1.024-1.105-2.212-1.729-3.56-1.862c-1.351-0.127-2.752-0.006-4.227,0.369c-1.46,0.378-2.886,0.911-4.268,1.596
		c-1.373,0.685-2.612,1.288-3.702,1.804c-3.073,1.562-5.953,2.879-8.649,3.947c-2.693,1.07-5.317,1.655-7.874,1.755
		c-2.552,0.102-5.075-0.415-7.545-1.551c-2.479-1.146-5.066-3.175-7.759-6.081c-2.783-3.019-4.816-6.251-6.08-9.693
		c-1.271-3.44-1.807-6.879-1.593-10.313c0.21-3.43,1.137-6.786,2.773-10.064c1.628-3.278,3.954-6.308,6.972-9.101
		c1.478-1.366,3.161-2.709,5.049-4.01c1.887-1.298,3.836-2.488,5.842-3.555c2.004-1.071,4.067-2.023,6.195-2.855
		c2.123-0.838,4.184-1.498,6.196-1.98L1341.434,1368.486z"/>
	<path d="M1406.817,1367.042l7.083,13.492l-14.644,17.068l-41.436-76.889l15.072-17.553l81.849,29.792l-14.719,17.152l-14.193-5.206
		L1406.817,1367.042z M1384.47,1328.349l-0.142,0.157l13.984,23.555l11.482-13.374L1384.47,1328.349z"/>
</g>
<path d="M209.442,891.859c0-13.167,0.422-26.268,1.173-39.304h-32.731c-0.72,13.04-1.115,26.144-1.115,39.304
	c0,137.716,39.417,269.362,112.846,382.118h39.395C251.302,1162.642,209.442,1030.475,209.442,891.859z"/>
<path d="M1548.584,891.859c0,138.615-41.86,270.782-119.565,382.118h39.392c73.422-112.756,112.85-244.402,112.85-382.118
	c0-13.16-0.398-26.265-1.113-39.304h-32.737C1548.154,865.591,1548.584,878.693,1548.584,891.859z"/>
<rect x="589.345" y="475.85" width="260.956" height="252.806"/>
<rect x="589.345" y="475.85" fill="#FFFFFF" width="260.956" height="252.806"/>
<rect x="589.345" y="766.711" fill="#FFFFFF" width="561.329" height="57.088"/>
<rect x="891.076" y="671.568" fill="#FFFFFF" width="259.598" height="57.087"/>
<rect x="891.076" y="570.996" fill="#FFFFFF" width="259.598" height="57.081"/>
<rect x="891.076" y="475.85" fill="#FFFFFF" width="259.598" height="57.087"/>
<g>
	<polygon fill="#00863F" points="675.648,526.309 683.197,549.547 707.624,549.547 687.861,563.9 695.413,587.131 675.648,572.774 
		655.888,587.131 663.44,563.9 643.673,549.547 668.101,549.547 	"/>
	<polygon fill="#00863F" points="763.993,526.309 771.546,549.547 795.972,549.547 776.212,563.9 783.757,587.131 763.993,572.774 
		744.236,587.131 751.779,563.9 732.017,549.547 756.446,549.547 	"/>
	<polygon fill="#00863F" points="675.648,617.375 683.197,640.605 707.624,640.605 687.861,654.962 695.413,678.196 675.648,663.84 
		655.888,678.196 663.44,654.962 643.673,640.605 668.101,640.605 	"/>
	<polygon fill="#00863F" points="763.993,617.375 771.546,640.605 795.972,640.605 776.212,654.962 783.757,678.196 763.993,663.84 
		744.236,678.196 751.779,654.962 732.017,640.605 756.446,640.605 	"/>
</g>
</svg>
