<?xml version="1.0" encoding="utf-8"?>
<!-- Generator: Adobe Illustrator 23.0.3, SVG Export Plug-In . SVG Version: 6.00 Build 0)  -->
<svg version="1.1" id="Layer_1" xmlns="http://www.w3.org/2000/svg" xmlns:xlink="http://www.w3.org/1999/xlink" x="0px" y="0px"
	 viewBox="0 0 455.87 455.87" style="enable-background:new 0 0 455.87 455.87;" xml:space="preserve">
<style type="text/css">
	.st0{fill:#032C34;}
	.st1{fill:#819795;}
	.st2{fill:#CC4D27;}
</style>
<g>
	<circle class="st0" cx="227.94" cy="227.94" r="227.94"/>
	<path class="st1" d="M263.21,321.1H116.67c-9.83,0-17.79,7.97-17.79,17.79c0,9.83,7.97,17.79,17.79,17.79h146.54
		c9.83,0,17.79-7.97,17.79-17.79C281,329.07,273.03,321.1,263.21,321.1z"/>
	<path class="st1" d="M116.67,301.21h41.55c9.83,0,17.79-7.97,17.79-17.79c0-9.83-7.97-17.79-17.79-17.79h-41.55
		c-9.83,0-17.79,7.97-17.79,17.79C98.87,293.24,106.84,301.21,116.67,301.21z"/>
	<path class="st1" d="M116.67,245.73h59.35c9.83,0,17.79-7.97,17.79-17.79c0-9.83-7.97-17.79-17.79-17.79h-59.35
		c-9.83,0-17.79,7.97-17.79,17.79C98.87,237.76,106.84,245.73,116.67,245.73z"/>
	<path class="st1" d="M116.67,190.25h30.28c9.83,0,17.79-7.97,17.79-17.79c0-9.83-7.97-17.79-17.79-17.79h-30.28
		c-9.83,0-17.79,7.97-17.79,17.79C98.87,182.28,106.84,190.25,116.67,190.25z"/>
	<path class="st1" d="M116.67,134.77c9.83,0,17.79-7.97,17.79-17.79c0-9.83-7.97-17.79-17.79-17.79s-17.79,7.97-17.79,17.79
		C98.87,126.8,106.84,134.77,116.67,134.77z"/>
	<path class="st2" d="M339.21,321.1h-24.39c-9.83,0-17.79,7.97-17.79,17.79c0,9.83,7.97,17.79,17.79,17.79h24.39
		c9.83,0,17.79-7.97,17.79-17.79C357,329.07,349.03,321.1,339.21,321.1z"/>
	<path class="st2" d="M339.21,265.62c-0.21,0-0.41,0.03-0.62,0.03v-0.03h-38.57h-2.99h-88.2c-9.83,0-17.79,7.96-17.79,17.79
		c0,9.82,7.97,17.79,17.79,17.79h88.2h2.99h38.57v-0.03c0.21,0.01,0.41,0.03,0.62,0.03c9.83,0,17.79-7.97,17.79-17.79
		C357,273.59,349.03,265.62,339.21,265.62z"/>
	<path class="st2" d="M339.21,154.66c-0.21,0-0.41,0.02-0.62,0.03v-0.03H308c-9.83,0-17.79,7.97-17.79,17.79
		c0,9.83,7.97,17.79,17.79,17.79h30.59v-0.03c0.21,0.01,0.41,0.03,0.62,0.03c9.83,0,17.79-7.97,17.79-17.79
		C357,162.63,349.03,154.66,339.21,154.66z"/>
	<path class="st2" d="M339.21,134.77c9.83,0,17.79-7.97,17.79-17.79c0-9.83-7.97-17.79-17.79-17.79s-17.79,7.97-17.79,17.79
		C321.41,126.8,329.38,134.77,339.21,134.77z"/>
	<path class="st2" d="M227.63,245.73c9.83,0,17.79-7.97,17.79-17.79c0-9.83-7.97-17.79-17.79-17.79s-17.79,7.97-17.79,17.79
		C209.83,237.76,217.8,245.73,227.63,245.73z"/>
	<path class="st2" d="M279.24,245.73h59.35c9.83,0,17.79-7.97,17.79-17.79c0-9.83-7.97-17.79-17.79-17.79h-59.35
		c-9.83,0-17.79,7.97-17.79,17.79C261.44,237.76,269.41,245.73,279.24,245.73z"/>
</g>
</svg>
